PathFileType	4	(X/Y/Z)	Patient4_TMGait_0pt7_02_right_34.trc.trc
DataRate	CameraRate	NumFrames	NumMarkers	Units	OrigDataRate	OrigDataStartFrame	OrigNumFrames
84.337349397590	84.337349397590	6	33	mm	84.337349397590	1	       141
Frame#	Time	Sacral			L.Shoulder			Chest			R.Shoulder			Neck			R.ASIS			L.ASIS			R.Thigh.Superior			R.Thigh.Lateral			R.Thigh.Inferior			R.Patella			L.Thigh.Superior			L.Thigh.Lateral			L.Thigh.Inferior			L.Patella			L.Shank.Superior			L.Shank.Lateral			L.Shank.Inferior			R.Shank.Superior			R.Shank.Lateral			R.Shank.Inferior			R.Heel			R.Midfoot.Superior			R.Midfoot.Lateral			R.Toe			L.Heel			L.Midfoot.Lateral			L.Midfoot.Superior			L.Toe			L.Elbow			L.Wrist			R.Elbow			R.Wrist			
		X1	Y1	Z1	X2	Y2	Z2	X3	Y3	Z3	X4	Y4	Z4	X5	Y5	Z5	X6	Y6	Z6	X7	Y7	Z7	X8	Y8	Z8	X9	Y9	Z9	X10	Y10	Z10	X11	Y11	Z11	X12	Y12	Z12	X13	Y13	Z13	X14	Y14	Z14	X15	Y15	Z15	X16	Y16	Z16	X17	Y17	Z17	X18	Y18	Z18	X19	Y19	Z19	X20	Y20	Z20	X21	Y21	Z21	X22	Y22	Z22	X23	Y23	Z23	X24	Y24	Z24	X25	Y25	Z25	X26	Y26	Z26	X27	Y27	Z27	X28	Y28	Z28	X29	Y29	Z29	X30	Y30	Z30	X31	Y31	Z31	X32	Y32	Z32	X33	Y33	Z33	

1	38.300000000000	872.394866640469	1020.363654296805	427.534878776987	1071.310023244107	1429.326206802247	226.234377945704	1178.503928288644	1358.903832907476	385.530660904450	1107.196732595147	1446.200468340941	558.564076642436	1084.103459875923	1494.478365178352	378.225118600518	1093.750994796277	948.174959400123	545.146785770617	1084.881082347515	955.476231002167	272.332644132898	1173.301091605593	779.287718481991	510.636822667097	1138.325572963701	660.182430791923	588.662629415651	1223.271304686804	619.700375959106	503.775447848926	1241.654456056110	503.817914497538	526.909297387482	1136.090145580182	750.690364130147	308.366791429572	1050.186134020306	635.422945823089	248.583824172189	1132.880874823693	558.397311552465	316.991429230539	1133.762693956554	487.801860896696	326.681314519139	1102.340938094722	416.003998304550	315.759087295693	1009.652971576799	306.352884925650	259.895854022947	1051.694461906958	192.338742667957	332.169696912246	1160.047558469969	433.536943698126	539.343451883117	1036.253353865648	405.062314617611	601.577952806297	1014.100976213153	295.981167932128	556.839932831981	809.221502013513	245.017342245077	529.773983070936	974.617545280771	181.147969476955	577.688206451160	864.603264020013	188.897572701140	608.730437049946	1032.893224901092	68.260078765534	613.705546135553	916.511723146596	38.764368367822	366.360635955614	992.855805757943	36.057919995285	287.788751640292	1075.223575038444	96.368676935070	317.804131725112	1204.782048324129	42.609834467957	292.439807543881	1018.220767088446	1078.350667064981	115.615755958705	1146.227223911477	848.829715952007	123.521757403057	1140.690060742036	1100.292845670960	675.694695612107	1352.702605738404	984.140353962719	576.334523583196	
2	38.311857142857	870.513962063324	1020.078861859190	425.988861797225	1071.438580589469	1429.691757336992	226.319802158423	1177.132056252617	1358.973047461700	386.498534014427	1104.100697386641	1445.791601347833	559.061802839903	1082.814826219951	1494.561402087854	378.506497550786	1091.621281034145	948.552030617881	545.179957636005	1084.091530721861	955.864779226060	272.059234875008	1174.157141869587	783.490565013909	510.557037594060	1142.144520910914	663.954419437961	588.743140014473	1228.028636554370	625.477109866919	503.932235188813	1249.688429819281	510.533312043902	527.126160443296	1132.842107419072	749.654571550195	308.516547763752	1046.034288010306	635.261146247981	247.859466740203	1127.291954839917	557.310597154410	316.742227659112	1127.263624284933	486.781314248487	326.480551505525	1095.603596682610	415.238214664990	315.486590043110	1002.430583309308	306.087013706880	259.619210577646	1043.475741280656	191.910860976816	332.140047324409	1170.378445521703	437.947335859501	539.616755392472	1047.780536204580	405.255524693407	601.759454231994	1029.531087676057	295.570372471232	557.137443563436	826.899949889569	237.345826396992	530.073626169046	994.333372527445	179.797097048909	578.147482622948	884.205520894764	183.213048549809	608.852215111306	1056.491140300534	68.934502167805	613.785767861093	907.673135568150	38.747689728356	366.351837647714	984.030322092261	35.997022973199	287.775936773165	1066.399059653985	96.319125384097	317.824387520395	1195.988721359413	42.517472456722	292.449354484082	1027.868695543796	1079.204222895530	111.992658097185	1167.904146697050	858.339498371328	121.188309142626	1132.574411319976	1099.010286806309	676.923580658291	1333.340403875273	962.494236784912	589.600202212443	
3	38.323714285714	868.659803142038	1019.804309615689	424.481703385387	1071.586777944888	1430.054209423180	226.434026130396	1175.802054759731	1359.026289518043	387.470565275361	1101.082648956160	1445.368637065278	559.573729161434	1081.566425880846	1494.634496730657	378.814423806749	1089.528117499833	948.919947546823	545.200547226567	1083.308345939151	956.228958910970	271.793168373932	1174.958339723254	787.611920885791	510.496273207832	1145.815585870278	667.652209311702	588.832961295936	1232.636913226722	631.159806996562	504.126067460498	1257.495823090731	517.169353615248	527.374864195665	1129.643460271188	748.624393087754	308.679646051763	1041.940323508354	635.090483548532	247.166480857964	1121.777355065585	556.232289205335	316.509899121765	1120.854556187862	485.772320476731	326.290641179419	1088.956091489994	414.476552951041	315.230470905258	995.302946363067	305.821710412354	259.352374599678	1035.358694486003	191.486803677741	332.114257499813	1180.522620951914	442.293882796041	539.915703924832	1059.169710303769	405.338230039906	601.974962479742	1044.860689086006	295.071755866739	557.461162458041	844.522062968065	229.548998162122	530.431376357442	1013.973978405052	178.342769972500	578.601533067821	903.770725495944	177.430167666290	609.028472476461	1080.051745702481	69.584209782964	613.888001806369	898.938867083529	38.731806243300	366.340791986923	975.307242598518	35.941207993253	287.762146180113	1057.679223240209	96.270225782204	317.846181136175	1187.297829029467	42.423903181524	292.457756213146	1037.395724681996	1080.116779336802	108.459674443321	1189.232565814658	867.914896472874	118.981905942770	1124.583868419906	1097.751315402265	678.183546766045	1313.798808135299	941.415774419907	602.881097561766	
4	38.335571428571	866.864013259653	1019.547353692264	423.059441658397	1071.785731009665	1430.407273906356	226.618122790333	1174.561972502100	1359.039732789047	388.463995744821	1098.230452659897	1444.913486753422	560.127666126083	1080.410490301446	1494.684375224189	379.185085447775	1087.507852332765	949.257254752269	545.211034244121	1082.524002589282	956.533760335672	271.551566811771	1175.633099699067	791.539775760969	510.479186822981	1149.169107803416	671.168090003506	588.953436367624	1236.916769733442	636.607200706400	504.400732241774	1264.826640589134	523.619915898970	527.693823935948	1126.510938260424	747.595014192605	308.865786778365	1037.911779642737	634.905605863907	246.531209912190	1116.349033725726	555.162542000407	316.302754495419	1114.552263041747	484.781355483393	326.116091043798	1082.415414339369	413.723818793243	315.000763698217	988.291447054559	305.559461759684	259.101098228138	1027.368807505058	191.071832169763	332.093773619066	1190.300679212592	446.494856910555	540.272755313901	1070.352784781915	405.158525519223	602.281423580004	1060.095868574476	294.383360114788	557.851937027703	862.236280022025	221.424800673128	530.930931522790	1033.634054883996	176.702404899964	579.065722425784	923.473347595530	171.419853605026	609.330515390213	1103.722382494828	70.264128767930	614.029847241776	890.335740256830	38.721820984923	366.325267437735	966.711275603315	35.895346155162	287.747478106126	1049.091602640790	96.222519939215	317.870121943002	1178.733573724249	42.326709897430	292.464362151251	1046.727732930236	1081.161385513666	105.094939434165	1209.945358133754	877.739159676762	117.048452816026	1116.722834623016	1096.571081965406	679.548076789264	1293.789763561564	921.491248229204	616.194008465378	
5	38.347428571429	865.154401113820	1019.313671813230	421.762337140291	1072.063784978668	1430.744091193956	226.908944011468	1173.453684393645	1358.991459114821	389.496201762287	1095.621162211482	1444.412099715716	560.748924796375	1079.393927036471	1494.698228206869	379.651354981035	1085.590353183089	949.542813744482	545.224847157785	1081.731433955248	956.749317817929	271.351432791418	1176.116661483210	795.173332722092	510.524772406390	1152.061856825197	674.402545912466	589.122675381950	1240.711852352233	641.685623586465	504.789724490972	1271.469259019120	529.785807452098	528.113821471377	1123.448598281436	746.558116422166	309.080176878037	1033.938366110902	634.704103992642	245.973143857854	1110.997862588704	554.098900965292	316.124552739016	1108.347617047569	483.812566498120	325.958914442301	1075.973157943405	412.984347511425	314.803916406539	981.389743333306	305.303330198130	258.869543240732	1019.504604168181	190.671229949342	332.078926982197	1199.567132230927	450.475395208983	540.713874659212	1081.295449090984	404.582695077592	602.732505909062	1075.271205842384	293.422920804017	558.348322391306	880.227423022886	212.795042286707	531.646979082633	1053.439662752527	174.829261677199	579.566387443938	943.516681035704	165.078573441542	609.822023290179	1127.670439540216	71.052448027037	614.228993763825	881.861482716537	38.723134798812	366.302855166643	958.237998476620	35.862895893504	287.732758294444	1040.634042003404	96.176295670297	317.896269875250	1170.290813333690	42.223470231566	292.468615510445	1055.816388404852	1082.399403063793	101.957180163387	1229.850070218988	887.994699506815	115.510874498877	1108.944527785687	1095.524469766125	681.092687946616	1273.066109797917	903.221825413396	629.534948367521	
6	38.359285714286	863.556248651413	1019.106449246006	420.623938236086	1072.443424186565	1431.056839708531	227.335432793365	1172.510820366784	1358.863302364172	390.581734182172	1093.318211095010	1443.856424882260	561.457575627499	1078.555845033540	1494.664525066392	380.239106758470	1083.799829426692	949.755834029500	545.262509524981	1080.927441613023	956.854630934019	271.208671347254	1176.356613485627	798.422932155535	510.645499652207	1154.385100879260	677.265069485456	589.354679168488	1243.896355752053	646.268740973072	505.312880700185	1277.259117371645	535.569688518729	528.654369747592	1120.451419096262	745.504284283501	309.322384420969	1029.997297953637	634.487297176374	245.503651473300	1105.700671118861	553.038202582293	315.973482664869	1102.213357798067	482.868728238728	325.818030291288	1069.604237853701	412.263138426950	314.641632445816	974.572861808540	305.057322410810	258.659828851950	1011.747806453484	190.290583669411	332.068586847160	1208.206883456450	454.165201073383	541.255640581923	1091.981693762925	403.507642590742	603.373099131073	1090.419842454157	292.136985132995	558.981789659928	898.670394070038	203.537855808272	532.636133334232	1073.501866331172	172.720306665461	580.135911875120	964.080495628008	158.350055982985	610.550346511531	1152.024785733351	72.043736260455	614.499700712389	873.496424128904	38.740898453720	366.271566186014	949.866051335902	35.845474867059	287.719575928958	1032.286784423013	96.131675658264	317.923874453316	1161.947221581391	42.112150737224	292.470243207694	1064.628658242481	1083.871670139127	99.084982084697	1248.813359239144	898.829078307814	114.459962705789	1101.165278354802	1094.665562184245	682.885412639840	1251.486777204476	887.003955472765	642.850567452132	
